<svg id="svg" version="1.1" xmlns="http://www.w3.org/2000/svg" xmlns:xlink="http://www.w3.org/1999/xlink" width="400" height="400" viewBox="0, 0, 400,400"><g id="svgg"><path id="path0" d="M222.176 156.784 C 221.950 157.010,220.378 157.216,218.683 157.241 C 216.987 157.267,215.600 157.448,215.600 157.644 C 215.600 157.840,214.700 158.000,213.600 158.000 C 212.500 158.000,211.600 158.180,211.600 158.400 C 211.600 158.620,210.880 158.800,210.000 158.800 C 209.120 158.800,208.400 158.980,208.400 159.200 C 208.400 159.420,207.680 159.600,206.800 159.600 C 205.920 159.600,205.200 159.780,205.200 160.000 C 205.200 160.220,204.639 160.400,203.953 160.400 C 202.876 160.400,202.737 160.516,202.931 161.258 C 203.099 161.901,203.041 162.001,202.698 161.658 C 202.134 161.094,200.400 161.051,200.400 161.600 C 200.400 161.820,199.903 162.000,199.296 162.000 C 197.897 162.000,196.946 163.291,197.814 164.011 C 198.131 164.275,198.293 164.650,198.172 164.845 C 198.051 165.040,198.523 165.200,199.219 165.200 C 200.069 165.200,200.422 165.035,200.293 164.700 C 200.145 164.317,200.944 164.230,203.708 164.330 C 206.379 164.426,207.405 164.322,207.658 163.930 C 207.937 163.498,208.080 163.511,208.430 164.000 C 208.755 164.452,208.911 164.476,209.064 164.100 C 209.194 163.779,210.115 163.600,211.633 163.600 C 212.944 163.600,214.000 163.422,214.000 163.200 C 214.000 162.980,214.720 162.800,215.600 162.800 C 216.480 162.800,217.200 162.620,217.200 162.400 C 217.200 162.180,217.819 162.000,218.576 162.000 C 219.333 162.000,220.064 161.820,220.200 161.600 C 220.336 161.380,220.977 161.200,221.624 161.200 C 222.271 161.200,222.800 161.063,222.800 160.896 C 222.800 160.729,223.179 160.356,223.642 160.067 C 224.105 159.778,224.364 159.734,224.218 159.970 C 224.072 160.207,224.233 160.400,224.576 160.400 C 224.919 160.400,225.200 160.220,225.200 160.000 C 225.200 159.780,225.740 159.600,226.400 159.600 C 227.060 159.600,227.600 159.420,227.600 159.200 C 227.600 158.980,227.960 158.800,228.400 158.800 C 229.022 158.800,229.200 159.067,229.200 160.000 C 229.200 160.660,229.020 161.200,228.800 161.200 C 228.563 161.200,228.400 162.667,228.400 164.800 L 228.400 168.400 224.000 168.400 C 221.333 168.400,219.600 168.558,219.600 168.800 C 219.600 169.022,218.533 169.200,217.200 169.200 C 215.867 169.200,214.800 169.378,214.800 169.600 C 214.800 169.820,213.900 170.000,212.800 170.000 C 211.700 170.000,210.800 170.180,210.800 170.400 C 210.800 170.620,210.080 170.800,209.200 170.800 C 208.320 170.800,207.600 170.980,207.600 171.200 C 207.600 171.420,207.060 171.600,206.400 171.600 C 205.740 171.600,205.200 171.780,205.200 172.000 C 205.200 172.220,204.660 172.400,204.000 172.400 C 203.340 172.400,202.800 172.580,202.800 172.800 C 202.800 173.020,202.260 173.200,201.600 173.200 C 200.940 173.200,200.400 173.380,200.400 173.600 C 200.400 173.820,200.040 174.000,199.600 174.000 C 198.936 174.000,198.800 173.733,198.800 172.433 C 198.800 171.572,198.596 170.799,198.348 170.716 C 198.089 170.630,197.911 169.759,197.933 168.683 C 197.954 167.647,197.818 166.800,197.632 166.800 C 197.092 166.800,196.837 165.258,197.342 165.051 C 197.594 164.948,197.376 164.849,196.857 164.832 C 196.190 164.809,195.982 164.625,196.145 164.200 C 196.271 163.870,196.180 163.600,195.941 163.600 C 195.690 163.600,195.590 164.035,195.704 164.632 C 195.821 165.246,195.700 165.740,195.404 165.854 C 194.817 166.079,194.700 185.640,195.283 186.032 C 195.473 186.160,195.645 188.005,195.665 190.132 C 195.685 192.260,195.858 194.000,196.050 194.000 C 196.243 194.000,196.400 194.889,196.400 195.976 C 196.400 197.063,196.580 198.064,196.800 198.200 C 197.232 198.467,197.365 201.200,196.947 201.200 C 196.808 201.200,196.355 200.809,195.941 200.332 C 195.220 199.501,195.165 199.495,194.655 200.192 C 194.285 200.698,194.035 200.780,193.837 200.461 C 193.681 200.207,193.666 200.000,193.805 200.000 C 193.944 200.000,193.787 199.730,193.457 199.400 C 192.751 198.694,185.200 198.511,185.200 199.200 C 185.200 199.420,184.859 199.600,184.443 199.600 C 184.026 199.600,183.578 199.881,183.446 200.225 C 183.314 200.569,183.027 200.740,182.809 200.606 C 182.303 200.293,179.600 202.972,179.600 203.787 C 179.600 204.124,179.420 204.400,179.200 204.400 C 178.980 204.400,178.800 204.850,178.800 205.400 C 178.800 206.430,179.713 206.787,180.226 205.957 C 180.423 205.640,180.584 205.650,180.796 205.993 C 181.005 206.331,181.397 206.167,182.128 205.436 C 182.697 204.866,183.442 204.400,183.782 204.400 C 184.122 204.400,184.400 204.220,184.400 204.000 C 184.400 203.780,184.760 203.600,185.200 203.600 C 185.640 203.600,186.000 203.420,186.000 203.200 C 186.000 202.967,187.333 202.800,189.200 202.800 C 191.067 202.800,192.400 202.967,192.400 203.200 C 192.400 203.420,192.760 203.600,193.200 203.600 C 193.640 203.600,194.000 203.780,194.000 204.000 C 194.000 204.220,194.270 204.400,194.600 204.400 C 194.929 204.400,195.939 205.118,196.844 205.996 C 198.583 207.684,199.200 207.744,199.200 206.225 C 199.200 205.715,199.455 205.087,199.766 204.828 C 200.481 204.235,200.631 185.760,199.928 184.913 C 199.624 184.547,199.631 184.400,199.951 184.400 C 200.198 184.400,200.400 184.040,200.400 183.600 C 200.400 183.160,200.220 182.800,200.000 182.800 C 199.467 182.800,199.479 176.973,200.014 175.974 C 200.485 175.094,201.418 174.949,201.710 175.710 C 201.956 176.351,206.442 176.579,206.819 175.969 C 206.965 175.734,208.280 175.534,209.742 175.525 C 211.204 175.517,212.400 175.350,212.400 175.155 C 212.400 174.960,213.300 174.800,214.400 174.800 C 215.500 174.800,216.400 174.620,216.400 174.400 C 216.400 174.180,217.300 174.000,218.400 174.000 C 219.500 174.000,220.400 173.820,220.400 173.600 C 220.400 173.380,220.940 173.200,221.600 173.200 C 222.260 173.200,222.800 173.020,222.800 172.800 C 222.800 172.580,223.340 172.400,224.000 172.400 C 224.660 172.400,225.200 172.220,225.200 172.000 C 225.200 171.780,225.740 171.600,226.400 171.600 C 227.060 171.600,227.600 171.420,227.600 171.200 C 227.600 170.980,227.780 170.800,228.000 170.800 C 228.220 170.800,228.400 171.340,228.400 172.000 C 228.400 172.660,228.580 173.200,228.800 173.200 C 229.042 173.200,229.200 174.933,229.200 177.600 C 229.200 180.267,229.358 182.000,229.600 182.000 C 229.820 182.000,230.000 182.372,230.000 182.826 C 230.000 183.281,230.186 184.001,230.414 184.426 C 230.700 184.960,230.700 185.200,230.414 185.200 C 230.186 185.200,230.000 185.740,230.000 186.400 C 230.000 187.060,229.820 187.600,229.600 187.600 C 229.380 187.600,229.200 187.420,229.200 187.200 C 229.200 186.980,228.660 186.800,228.000 186.800 C 227.340 186.800,226.800 186.638,226.800 186.439 C 226.800 186.241,225.180 186.074,223.200 186.069 C 221.220 186.065,219.600 186.227,219.600 186.430 C 219.600 186.634,219.146 186.800,218.591 186.800 C 217.196 186.800,213.200 190.796,213.200 192.191 C 213.200 192.746,213.020 193.200,212.800 193.200 C 212.580 193.200,212.403 193.515,212.406 193.900 C 212.411 194.436,212.491 194.475,212.750 194.066 C 213.023 193.637,213.136 193.656,213.332 194.166 C 213.697 195.119,214.145 194.954,215.952 193.200 C 216.859 192.320,217.788 191.600,218.017 191.600 C 218.246 191.600,218.820 191.240,219.293 190.799 C 219.953 190.185,220.234 190.115,220.506 190.499 C 220.790 190.900,220.902 190.900,221.064 190.500 C 221.190 190.190,222.059 190.000,223.353 190.000 C 224.501 190.000,225.682 190.225,225.979 190.500 C 226.416 190.906,226.455 190.891,226.186 190.421 C 225.996 190.088,226.379 190.216,227.090 190.721 C 227.768 191.205,228.458 191.600,228.622 191.600 C 228.786 191.600,229.783 192.500,230.837 193.600 C 232.960 195.814,234.000 196.150,234.000 194.624 C 234.000 194.087,234.180 193.536,234.400 193.400 C 234.620 193.264,234.800 192.973,234.800 192.753 C 234.800 192.533,234.575 192.488,234.300 192.653 C 233.911 192.887,233.904 192.825,234.269 192.373 C 234.829 191.680,234.910 179.600,234.355 179.600 C 234.160 179.600,234.000 177.980,234.000 176.000 C 234.000 173.867,233.837 172.400,233.600 172.400 C 233.380 172.400,233.200 172.209,233.200 171.976 C 233.200 171.743,233.380 171.664,233.600 171.800 C 233.820 171.936,234.000 171.687,234.000 171.247 C 234.000 170.807,233.820 170.336,233.600 170.200 C 233.380 170.064,233.200 169.189,233.200 168.256 C 233.200 167.323,233.029 166.389,232.819 166.179 C 232.610 165.970,232.394 165.135,232.339 164.325 C 232.285 163.515,232.096 162.941,231.920 163.049 C 231.621 163.234,231.406 161.300,231.585 160.035 C 231.810 158.442,229.769 156.017,229.041 157.012 C 228.634 157.569,228.453 157.609,228.199 157.199 C 227.972 156.831,228.032 156.772,228.400 157.000 C 228.721 157.199,228.826 157.166,228.672 156.916 C 228.337 156.375,222.699 156.261,222.176 156.784 M123.800 165.600 C 123.191 165.862,123.430 165.949,124.800 165.966 C 126.102 165.982,126.434 165.881,126.000 165.600 C 125.288 165.140,124.871 165.140,123.800 165.600 M118.200 166.400 C 118.064 166.620,117.423 166.800,116.776 166.800 C 116.129 166.800,115.600 166.980,115.600 167.200 C 115.600 167.420,115.240 167.600,114.800 167.600 C 114.360 167.600,113.987 167.735,113.970 167.900 C 113.762 170.001,113.446 170.599,112.766 170.179 C 112.405 169.956,112.456 169.748,112.963 169.377 C 113.483 168.997,113.528 168.803,113.148 168.568 C 112.865 168.393,112.579 168.463,112.490 168.729 C 112.404 168.988,111.988 169.200,111.567 169.200 C 111.145 169.200,110.800 169.391,110.800 169.624 C 110.800 169.857,111.008 169.919,111.262 169.762 C 111.541 169.589,111.615 169.652,111.449 169.921 C 111.298 170.165,110.909 170.263,110.584 170.139 C 110.152 169.973,110.022 170.165,110.097 170.856 C 110.164 171.474,109.993 171.800,109.600 171.800 C 109.270 171.800,108.868 171.980,108.706 172.200 C 108.527 172.444,108.410 172.396,108.406 172.076 C 108.398 171.358,107.807 171.786,106.740 173.284 C 106.246 173.977,106.058 174.411,106.321 174.249 C 106.585 174.086,106.800 174.107,106.800 174.296 C 106.800 174.882,105.875 175.600,105.120 175.600 C 104.278 175.600,104.198 176.026,104.900 176.770 C 105.303 177.197,105.288 177.266,104.825 177.125 C 104.137 176.916,102.800 178.154,102.800 179.000 C 102.800 179.330,102.620 179.600,102.400 179.600 C 102.180 179.600,102.000 180.129,102.000 180.776 C 102.000 181.423,101.820 182.064,101.600 182.200 C 101.367 182.344,101.200 184.612,101.200 187.647 C 101.200 191.250,101.332 192.766,101.630 192.582 C 101.866 192.436,101.825 192.691,101.540 193.148 C 101.130 193.805,101.123 194.083,101.510 194.470 C 101.780 194.740,102.000 195.262,102.000 195.631 C 102.000 196.000,102.251 196.511,102.559 196.766 C 102.866 197.021,103.045 197.538,102.957 197.915 C 102.860 198.331,103.230 198.899,103.898 199.362 C 104.504 199.780,104.775 199.879,104.500 199.582 C 104.225 199.284,104.000 198.862,104.000 198.644 C 104.000 198.425,104.255 198.596,104.567 199.022 C 104.986 199.596,105.019 199.936,104.693 200.329 C 104.196 200.928,105.059 201.735,105.743 201.312 C 105.952 201.182,106.010 201.260,105.871 201.485 C 105.545 202.013,109.473 206.126,109.995 205.803 C 110.222 205.663,110.289 205.823,110.153 206.179 C 109.996 206.587,110.143 206.800,110.581 206.800 C 110.983 206.800,111.134 206.617,110.962 206.338 C 110.785 206.052,110.852 205.985,111.138 206.162 C 111.392 206.319,111.600 206.642,111.600 206.880 C 111.600 207.337,112.776 208.366,113.324 208.387 C 113.502 208.394,113.536 208.220,113.400 208.000 C 113.264 207.780,113.343 207.600,113.576 207.600 C 113.809 207.600,114.000 207.780,114.000 208.000 C 114.000 208.220,114.281 208.400,114.624 208.400 C 115.006 208.400,115.138 208.593,114.965 208.900 C 114.739 209.300,114.790 209.300,115.221 208.900 C 116.051 208.129,116.753 208.292,116.516 209.200 C 116.399 209.647,116.504 210.000,116.753 210.000 C 116.999 210.000,117.155 209.797,117.100 209.549 C 116.870 208.511,119.101 208.751,119.362 209.792 C 119.560 210.579,119.855 210.790,120.708 210.754 C 121.385 210.725,121.534 210.638,121.100 210.524 C 120.715 210.424,120.400 210.162,120.400 209.943 C 120.400 209.283,127.590 209.648,128.286 210.343 C 128.864 210.921,129.574 210.463,129.594 209.500 C 129.602 209.098,130.800 209.113,130.800 209.515 C 130.800 209.688,131.361 209.873,132.047 209.925 C 132.976 209.996,133.238 209.877,133.078 209.458 C 132.911 209.023,133.172 208.938,134.231 209.081 C 135.060 209.192,135.600 209.094,135.600 208.833 C 135.600 208.595,135.971 208.400,136.425 208.400 C 136.997 208.400,137.213 208.180,137.129 207.682 C 136.927 206.493,139.365 203.825,140.046 204.490 C 140.351 204.787,141.275 205.347,142.100 205.734 C 142.925 206.121,143.600 206.718,143.600 207.062 C 143.600 207.459,143.824 207.600,144.215 207.450 C 144.565 207.315,144.928 207.469,145.058 207.807 C 145.187 208.142,145.789 208.400,146.443 208.400 C 147.079 208.400,147.600 208.558,147.600 208.750 C 147.600 208.943,148.070 209.100,148.645 209.100 C 149.221 209.100,149.840 209.340,150.021 209.634 C 150.288 210.065,150.501 210.032,151.130 209.463 C 151.879 208.785,151.940 208.798,152.712 209.779 C 153.543 210.836,154.800 211.162,154.800 210.320 C 154.800 209.947,154.907 209.947,155.280 210.320 C 155.544 210.584,156.039 210.797,156.380 210.794 C 156.926 210.788,156.929 210.742,156.400 210.400 C 155.917 210.088,155.981 210.011,156.724 210.006 C 157.357 210.002,157.553 210.157,157.347 210.500 C 157.118 210.881,157.183 210.894,157.623 210.555 C 158.207 210.104,160.886 209.936,160.621 210.367 C 160.543 210.495,161.361 210.642,162.439 210.693 C 163.521 210.745,164.400 210.610,164.400 210.393 C 164.400 210.177,164.805 209.997,165.300 209.994 C 166.028 209.989,166.085 209.914,165.600 209.600 C 165.071 209.258,165.074 209.212,165.620 209.206 C 165.961 209.203,166.452 209.412,166.712 209.672 C 167.180 210.140,167.587 210.029,170.095 208.753 C 170.477 208.559,171.152 208.400,171.595 208.400 C 172.038 208.400,172.400 208.220,172.400 208.000 C 172.400 207.780,172.760 207.600,173.200 207.600 C 173.665 207.600,174.000 207.333,174.000 206.963 C 174.000 206.612,174.360 206.231,174.800 206.116 C 175.240 206.001,175.600 205.748,175.600 205.553 C 175.600 205.359,175.875 205.200,176.211 205.200 C 177.124 205.200,180.508 201.659,180.246 200.977 C 180.125 200.660,180.212 200.400,180.441 200.400 C 181.068 200.400,182.000 199.341,182.000 198.629 C 182.000 198.283,182.180 198.000,182.400 198.000 C 182.620 198.000,182.800 197.460,182.800 196.800 C 182.800 196.140,182.980 195.600,183.200 195.600 C 183.420 195.600,183.600 194.880,183.600 194.000 C 183.600 193.120,183.780 192.400,184.000 192.400 C 184.220 192.400,184.400 192.119,184.400 191.776 C 184.400 191.433,184.220 191.264,184.000 191.400 C 183.780 191.536,183.600 191.382,183.600 191.057 C 183.600 190.732,183.825 190.375,184.100 190.264 C 184.488 190.106,184.478 189.975,184.055 189.679 C 183.594 189.356,183.594 189.263,184.055 189.080 C 184.442 188.926,184.455 188.854,184.100 188.832 C 183.479 188.792,183.430 187.600,184.049 187.600 C 184.341 187.600,184.306 187.367,183.949 186.935 C 183.521 186.416,183.510 186.233,183.900 186.102 C 184.464 185.912,184.593 184.400,184.045 184.400 C 183.692 184.400,183.351 183.141,182.935 180.300 C 182.815 179.475,182.555 178.800,182.358 178.800 C 182.161 178.800,182.000 178.480,182.000 178.088 C 182.000 177.697,181.640 177.117,181.200 176.800 C 180.760 176.483,180.400 175.989,180.400 175.703 C 180.400 175.025,176.175 170.800,175.497 170.800 C 175.211 170.800,174.717 170.440,174.400 170.000 C 174.083 169.560,173.503 169.200,173.112 169.200 C 172.720 169.200,172.400 169.020,172.400 168.800 C 172.400 168.580,172.130 168.400,171.800 168.400 C 171.470 168.400,171.200 168.670,171.200 169.000 C 171.200 169.330,171.000 169.600,170.757 169.600 C 170.483 169.600,170.410 169.216,170.564 168.600 C 170.749 167.862,170.656 167.600,170.208 167.600 C 169.873 167.600,169.600 167.780,169.600 168.000 C 169.600 168.220,169.440 168.400,169.244 168.400 C 169.049 168.400,168.914 168.085,168.944 167.700 C 168.987 167.167,168.641 166.970,167.500 166.876 C 166.675 166.808,166.000 166.583,166.000 166.376 C 166.000 166.169,165.730 166.000,165.400 166.000 C 165.070 166.000,164.797 166.225,164.794 166.500 C 164.790 166.810,164.676 166.848,164.494 166.600 C 163.985 165.908,161.726 165.894,161.463 166.581 C 161.314 166.967,160.732 167.198,159.913 167.195 C 158.261 167.188,156.755 166.796,156.981 166.431 C 157.263 165.974,153.968 165.929,153.421 166.382 C 153.144 166.613,152.125 166.829,151.158 166.863 C 150.191 166.897,149.285 167.100,149.145 167.313 C 149.006 167.526,148.421 167.700,147.845 167.700 C 147.270 167.700,146.800 167.858,146.800 168.050 C 146.800 168.243,146.440 168.400,146.000 168.400 C 145.560 168.400,145.200 168.580,145.200 168.800 C 145.200 169.020,144.880 169.200,144.488 169.200 C 144.097 169.200,143.517 169.560,143.200 170.000 C 142.883 170.440,142.411 170.800,142.152 170.800 C 141.893 170.800,140.762 171.700,139.639 172.800 C 138.515 173.900,137.372 174.794,137.098 174.787 C 136.812 174.780,136.920 174.532,137.350 174.206 C 137.763 173.894,137.999 173.375,137.875 173.052 C 137.752 172.730,137.909 172.367,138.225 172.246 C 139.380 171.803,138.939 169.329,137.600 168.736 C 136.940 168.444,136.400 168.069,136.400 167.902 C 136.400 167.736,136.130 167.600,135.800 167.600 C 135.470 167.600,135.200 167.808,135.200 168.061 C 135.200 168.315,134.864 168.135,134.453 167.661 C 134.042 167.188,133.243 166.800,132.677 166.800 C 132.110 166.800,131.536 166.620,131.400 166.400 C 131.013 165.774,128.913 165.927,128.655 166.600 C 128.474 167.073,127.652 167.200,124.784 167.200 C 122.081 167.200,120.988 167.045,120.543 166.600 C 119.859 165.916,118.567 165.806,118.200 166.400 M236.400 167.947 C 236.400 168.610,236.656 169.213,236.993 169.342 C 237.331 169.472,237.485 169.835,237.350 170.185 C 237.132 170.754,237.612 171.007,238.568 170.825 C 238.770 170.786,238.680 171.064,238.368 171.442 C 237.929 171.974,237.914 172.168,238.300 172.298 C 238.575 172.391,238.800 172.812,238.800 173.233 C 238.800 173.655,238.980 174.000,239.200 174.000 C 239.420 174.000,239.600 174.360,239.600 174.800 C 239.600 175.240,239.780 175.600,240.000 175.600 C 240.220 175.600,240.400 175.887,240.400 176.237 C 240.400 176.588,240.738 176.963,241.150 177.071 C 241.621 177.194,241.900 177.625,241.900 178.229 C 241.900 178.758,242.305 179.519,242.800 179.920 C 243.330 180.348,243.700 181.091,243.700 181.724 C 243.700 182.316,243.857 182.800,244.050 182.800 C 244.243 182.800,244.400 183.160,244.400 183.600 C 244.400 184.040,244.580 184.400,244.800 184.400 C 245.020 184.400,245.200 184.760,245.200 185.200 C 245.200 185.640,245.380 186.000,245.600 186.000 C 245.820 186.000,246.000 186.320,246.000 186.712 C 246.000 187.103,246.360 187.683,246.800 188.000 C 247.240 188.317,247.600 188.897,247.600 189.288 C 247.600 189.680,247.853 190.000,248.163 190.000 C 248.528 190.000,248.652 190.280,248.516 190.800 C 248.399 191.247,248.504 191.600,248.753 191.600 C 248.999 191.600,249.200 191.960,249.200 192.400 C 249.200 192.840,249.380 193.200,249.600 193.200 C 249.820 193.200,250.000 193.560,250.000 194.000 C 250.000 194.440,250.253 194.800,250.563 194.800 C 250.928 194.800,251.052 195.080,250.916 195.600 C 250.799 196.047,250.904 196.400,251.153 196.400 C 251.399 196.400,251.600 196.760,251.600 197.200 C 251.600 197.640,251.737 198.000,251.905 198.000 C 252.073 198.000,252.395 198.405,252.620 198.900 C 252.845 199.395,253.209 199.768,253.430 199.728 C 253.650 199.689,253.870 200.139,253.919 200.728 C 253.967 201.318,254.185 201.860,254.403 201.933 C 254.622 202.007,254.800 202.412,254.800 202.833 C 254.800 203.255,254.980 203.600,255.200 203.600 C 255.420 203.600,255.600 203.960,255.600 204.400 C 255.600 204.840,255.780 205.200,256.000 205.200 C 256.220 205.200,256.400 205.541,256.400 205.957 C 256.400 206.374,256.681 206.822,257.025 206.954 C 257.369 207.086,257.538 207.377,257.400 207.600 C 256.654 208.807,258.316 209.200,264.171 209.200 L 270.000 209.200 270.000 208.088 C 270.000 207.435,270.330 206.739,270.800 206.400 C 271.240 206.083,271.600 205.503,271.600 205.112 C 271.600 204.720,271.780 204.400,272.000 204.400 C 272.220 204.400,272.400 204.122,272.400 203.783 C 272.400 203.444,272.760 202.780,273.200 202.308 C 273.640 201.836,274.000 201.213,274.000 200.925 C 274.000 200.636,274.180 200.400,274.400 200.400 C 274.620 200.400,274.800 200.040,274.800 199.600 C 274.800 199.160,274.980 198.800,275.200 198.800 C 275.420 198.800,275.600 198.440,275.600 198.000 C 275.600 197.560,275.780 197.200,276.000 197.200 C 276.220 197.200,276.400 196.840,276.400 196.400 C 276.400 195.960,276.580 195.600,276.800 195.600 C 277.020 195.600,277.200 195.240,277.200 194.800 C 277.200 194.360,277.380 194.000,277.600 194.000 C 277.820 194.000,278.000 193.640,278.000 193.200 C 278.000 192.760,278.147 192.400,278.326 192.400 C 278.932 192.400,280.376 189.262,279.868 189.050 C 279.610 188.942,279.805 188.731,280.300 188.580 C 280.818 188.423,281.200 187.987,281.200 187.553 C 281.200 187.139,281.380 186.800,281.600 186.800 C 281.820 186.800,282.000 186.440,282.000 186.000 C 282.000 185.560,282.180 185.200,282.400 185.200 C 282.620 185.200,282.800 185.009,282.800 184.776 C 282.800 184.543,282.620 184.464,282.400 184.600 C 282.180 184.736,282.000 184.669,282.000 184.451 C 282.000 184.232,282.360 183.940,282.800 183.800 C 283.240 183.660,283.600 183.198,283.600 182.773 C 283.600 182.348,283.780 182.000,284.000 182.000 C 284.220 182.000,284.400 181.764,284.400 181.475 C 284.400 181.187,284.760 180.564,285.200 180.092 C 285.640 179.620,286.000 178.956,286.000 178.617 C 286.000 178.278,286.180 178.000,286.400 178.000 C 286.620 178.000,286.800 177.640,286.800 177.200 C 286.800 176.760,287.001 176.400,287.247 176.400 C 287.496 176.400,287.601 176.047,287.484 175.600 C 287.348 175.080,287.472 174.800,287.837 174.800 C 288.147 174.800,288.400 174.440,288.400 174.000 C 288.400 173.560,288.580 173.200,288.800 173.200 C 289.020 173.200,289.200 172.840,289.200 172.400 C 289.200 171.960,289.380 171.600,289.600 171.600 C 289.820 171.600,290.000 171.240,290.000 170.800 C 290.000 170.360,290.180 170.000,290.400 170.000 C 290.620 170.000,290.800 169.280,290.800 168.400 C 290.800 166.846,288.799 165.856,288.333 167.179 C 288.133 167.749,274.273 167.819,274.084 167.252 C 274.001 167.003,273.749 166.800,273.524 166.800 C 273.299 166.800,273.214 167.061,273.337 167.380 C 273.485 167.767,273.367 167.885,272.980 167.737 C 272.590 167.587,272.400 167.783,272.400 168.334 C 272.400 168.784,272.208 169.272,271.973 169.417 C 271.738 169.562,271.640 169.928,271.756 170.229 C 271.871 170.530,271.704 171.039,271.383 171.360 C 271.062 171.681,270.800 172.226,270.800 172.571 C 270.800 172.917,270.620 173.200,270.400 173.200 C 270.180 173.200,270.000 173.560,270.000 174.000 C 270.000 174.440,269.820 174.800,269.600 174.800 C 269.380 174.800,269.200 175.160,269.200 175.600 C 269.200 176.040,269.020 176.400,268.800 176.400 C 268.580 176.400,268.400 176.940,268.400 177.600 C 268.400 178.260,268.220 178.800,268.000 178.800 C 267.780 178.800,267.600 179.160,267.600 179.600 C 267.600 180.040,267.401 180.400,267.157 180.400 C 266.914 180.400,266.821 180.677,266.950 181.015 C 267.085 181.365,266.931 181.728,266.593 181.858 C 266.267 181.983,266.000 182.426,266.000 182.843 C 266.000 183.259,265.820 183.600,265.600 183.600 C 265.380 183.600,265.200 183.883,265.200 184.229 C 265.200 185.037,264.237 186.000,263.429 186.000 C 263.079 186.000,262.800 185.664,262.800 185.243 C 262.800 184.826,262.519 184.378,262.175 184.246 C 261.831 184.114,261.670 183.810,261.818 183.571 C 261.966 183.332,261.707 182.870,261.243 182.545 C 260.628 182.114,260.400 181.528,260.400 180.377 C 260.400 179.510,260.220 178.800,260.000 178.800 C 259.780 178.800,259.600 178.440,259.600 178.000 C 259.600 177.560,259.420 177.200,259.200 177.200 C 258.980 177.200,258.800 176.859,258.800 176.443 C 258.800 176.026,258.533 175.583,258.207 175.458 C 257.869 175.328,257.715 174.965,257.850 174.615 C 257.979 174.277,257.886 174.000,257.643 174.000 C 257.399 174.000,257.200 173.640,257.200 173.200 C 257.200 172.760,257.020 172.400,256.800 172.400 C 256.580 172.400,256.400 171.937,256.400 171.371 C 256.400 170.806,256.128 170.071,255.796 169.739 C 255.464 169.407,255.312 168.942,255.458 168.706 C 255.619 168.445,255.535 168.393,255.243 168.574 C 254.515 169.023,253.581 168.516,253.849 167.817 C 253.978 167.480,254.245 167.304,254.442 167.426 C 254.639 167.548,254.800 167.472,254.800 167.257 C 254.800 167.016,251.281 166.850,245.600 166.823 L 236.400 166.780 236.400 167.947 M128.516 178.800 C 128.332 179.504,128.504 179.600,129.953 179.600 C 130.896 179.600,131.600 179.790,131.600 180.045 C 131.600 180.311,132.076 180.421,132.779 180.318 C 133.493 180.213,133.861 180.301,133.713 180.540 C 133.569 180.773,133.743 180.831,134.134 180.681 C 134.500 180.540,134.800 180.599,134.800 180.813 C 134.800 181.026,134.620 181.200,134.400 181.200 C 134.180 181.200,134.000 182.100,134.000 183.200 C 134.000 184.300,133.820 185.200,133.600 185.200 C 133.367 185.200,133.200 186.533,133.200 188.400 C 133.200 190.267,133.367 191.600,133.600 191.600 C 133.820 191.600,134.000 191.971,134.000 192.424 C 134.000 192.877,134.180 193.136,134.400 193.000 C 134.620 192.864,134.800 192.943,134.800 193.176 C 134.800 193.409,134.620 193.600,134.400 193.600 C 134.180 193.600,134.000 194.050,134.000 194.600 C 134.000 195.333,133.787 195.600,133.200 195.600 C 132.760 195.600,132.400 195.780,132.400 196.000 C 132.400 196.220,132.040 196.400,131.600 196.400 C 131.160 196.400,130.800 196.589,130.800 196.820 C 130.800 197.065,129.924 197.225,128.700 197.204 C 124.579 197.133,124.000 197.180,124.000 197.591 C 124.000 197.854,123.713 197.828,123.218 197.519 C 122.788 197.250,122.510 196.957,122.599 196.868 C 123.019 196.448,121.487 195.541,120.688 195.736 C 119.504 196.025,118.304 195.115,118.657 194.195 C 118.915 193.523,118.955 193.524,119.460 194.215 C 119.753 194.614,120.112 194.821,120.260 194.673 C 120.544 194.389,118.914 192.800,118.339 192.800 C 118.152 192.800,118.000 192.530,118.000 192.200 C 118.000 191.870,117.820 191.600,117.600 191.600 C 117.380 191.600,117.203 191.195,117.206 190.700 C 117.211 189.972,117.286 189.915,117.600 190.400 C 117.914 190.885,117.989 190.828,117.994 190.100 C 117.997 189.605,117.820 189.200,117.600 189.200 C 117.380 189.200,117.200 188.660,117.200 188.000 C 117.200 187.340,117.380 186.800,117.600 186.800 C 117.820 186.800,118.000 186.350,118.000 185.800 C 118.000 185.250,117.775 184.797,117.500 184.794 C 117.126 184.789,117.135 184.702,117.534 184.449 C 117.828 184.263,118.093 183.951,118.122 183.755 C 118.152 183.560,118.421 183.456,118.719 183.525 C 119.018 183.593,119.359 183.278,119.478 182.825 C 119.596 182.371,119.840 182.000,120.019 182.000 C 120.198 182.000,120.402 181.595,120.472 181.100 C 120.573 180.391,120.833 180.217,121.700 180.281 C 122.424 180.335,122.800 180.167,122.800 179.791 C 122.800 179.370,123.115 179.283,124.000 179.460 C 124.764 179.613,125.200 179.537,125.200 179.250 C 125.200 179.002,125.830 178.800,126.600 178.800 C 127.370 178.800,128.000 178.620,128.000 178.400 C 128.000 178.180,128.163 178.000,128.363 178.000 C 128.562 178.000,128.631 178.360,128.516 178.800 M161.933 180.021 C 162.007 180.230,162.326 180.400,162.644 180.400 C 163.690 180.400,166.996 184.067,166.863 185.081 C 166.780 185.713,166.946 186.000,167.395 186.000 C 167.772 186.000,167.931 186.188,167.772 186.445 C 167.621 186.689,167.698 187.013,167.943 187.165 C 169.009 187.824,168.948 189.950,167.847 190.451 C 166.810 190.924,166.429 191.600,167.200 191.600 C 167.420 191.600,167.600 191.853,167.600 192.163 C 167.600 192.535,167.319 192.652,166.770 192.508 C 166.196 192.358,165.979 192.462,166.066 192.845 C 166.135 193.150,165.493 194.120,164.640 195.000 C 163.786 195.880,163.214 196.375,163.368 196.100 C 163.521 195.825,163.457 195.600,163.224 195.600 C 162.991 195.600,162.800 195.851,162.800 196.157 C 162.800 196.464,162.521 196.822,162.179 196.953 C 161.823 197.089,161.663 197.022,161.803 196.795 C 161.937 196.578,161.869 196.400,161.651 196.400 C 161.432 196.400,161.140 196.760,161.000 197.200 C 160.745 198.004,159.200 198.347,159.200 197.600 C 159.200 197.380,158.936 197.200,158.613 197.200 C 158.255 197.200,158.115 197.435,158.255 197.800 C 158.508 198.460,158.088 198.570,157.279 198.057 C 156.992 197.875,156.812 197.473,156.879 197.163 C 156.963 196.773,156.662 196.623,155.900 196.675 C 155.151 196.727,154.800 196.557,154.800 196.145 C 154.800 195.705,154.446 195.572,153.500 195.657 C 152.642 195.735,152.234 195.609,152.300 195.287 C 152.355 195.019,152.181 194.845,151.913 194.900 C 151.588 194.967,151.466 194.548,151.549 193.643 C 151.644 192.599,151.540 192.337,151.099 192.507 C 150.671 192.671,150.561 192.457,150.668 191.663 C 150.793 190.738,150.762 190.703,150.434 191.400 C 150.068 192.176,150.055 192.173,150.028 191.324 C 150.013 190.842,149.811 190.331,149.581 190.188 C 149.294 190.011,149.309 189.750,149.630 189.364 C 150.000 188.918,149.962 188.800,149.449 188.800 C 149.092 188.800,148.800 188.620,148.800 188.400 C 148.800 188.180,149.070 188.000,149.400 188.000 C 149.768 188.000,150.000 187.626,150.000 187.033 C 150.000 186.502,150.225 185.975,150.500 185.864 C 150.876 185.711,150.852 185.555,150.400 185.230 C 149.892 184.866,149.940 184.762,150.706 184.552 C 151.205 184.415,151.565 184.094,151.506 183.838 C 151.364 183.215,154.213 180.400,154.987 180.400 C 155.324 180.400,155.600 180.233,155.600 180.028 C 155.600 179.265,161.665 179.259,161.933 180.021 M265.508 187.525 C 265.595 187.786,265.382 188.000,265.033 188.000 C 264.685 188.000,264.400 187.715,264.400 187.367 C 264.400 186.660,265.261 186.783,265.508 187.525 M231.600 188.200 C 231.600 188.530,231.439 188.800,231.243 188.800 C 231.046 188.800,230.782 188.530,230.655 188.200 C 230.515 187.835,230.655 187.600,231.013 187.600 C 231.336 187.600,231.600 187.870,231.600 188.200 M264.000 188.767 C 264.000 188.969,264.109 189.419,264.243 189.767 C 264.402 190.182,264.265 190.400,263.843 190.400 C 263.424 190.400,263.200 190.052,263.200 189.400 C 263.200 188.850,263.380 188.400,263.600 188.400 C 263.820 188.400,264.000 188.565,264.000 188.767 M135.600 195.819 C 135.600 196.396,134.820 197.058,134.769 196.524 C 134.753 196.346,134.680 195.897,134.609 195.528 C 134.524 195.087,134.672 194.930,135.039 195.070 C 135.348 195.189,135.600 195.526,135.600 195.819 M136.574 197.157 C 136.825 197.564,134.835 198.168,134.464 197.798 C 134.183 197.516,135.181 196.815,135.876 196.806 C 136.138 196.803,136.452 196.961,136.574 197.157 M230.400 198.835 C 229.630 199.687,228.685 200.387,228.300 200.392 C 227.915 200.396,227.600 200.580,227.600 200.800 C 227.600 201.020,227.195 201.202,226.700 201.205 C 225.430 201.213,223.979 201.642,224.171 201.953 C 224.260 202.097,223.628 202.148,222.766 202.065 C 221.905 201.983,221.200 201.751,221.200 201.550 C 221.200 201.349,220.740 201.268,220.179 201.370 C 219.523 201.488,219.078 201.348,218.936 200.977 C 218.814 200.660,218.413 200.400,218.046 200.400 C 217.678 200.400,217.117 200.040,216.800 199.600 C 216.483 199.160,216.002 198.800,215.732 198.800 C 215.461 198.800,215.073 198.502,214.869 198.138 C 214.235 197.004,213.200 197.796,213.200 199.416 C 213.200 200.940,213.927 202.000,214.971 202.000 C 215.317 202.000,215.600 202.283,215.600 202.629 C 215.600 203.437,216.563 204.400,217.371 204.400 C 217.717 204.400,218.000 204.580,218.000 204.800 C 218.000 205.020,218.360 205.200,218.800 205.200 C 219.240 205.200,219.600 205.380,219.600 205.600 C 219.600 205.838,221.125 206.000,223.376 206.000 C 225.463 206.000,227.263 205.821,227.400 205.600 C 227.536 205.380,227.997 205.200,228.424 205.200 C 228.851 205.200,229.200 204.936,229.200 204.613 C 229.200 204.289,229.425 204.110,229.700 204.215 C 230.616 204.562,233.097 201.805,232.864 200.700 C 232.829 200.535,233.059 200.400,233.375 200.400 C 233.792 200.400,233.937 199.933,233.904 198.700 C 233.878 197.765,233.787 197.315,233.700 197.700 C 233.600 198.142,233.166 198.400,232.522 198.400 C 231.661 198.400,231.580 198.307,232.000 197.800 C 233.081 196.497,231.715 197.382,230.400 198.835 M136.766 199.536 C 137.217 200.380,137.184 202.000,136.715 202.000 C 136.542 202.000,136.400 201.719,136.400 201.376 C 136.400 201.033,136.220 200.864,136.000 201.000 C 135.767 201.144,135.600 200.737,135.600 200.024 C 135.600 198.655,136.167 198.418,136.766 199.536 M231.680 199.680 C 231.423 199.937,231.081 200.014,230.918 199.852 C 230.756 199.689,230.883 199.396,231.200 199.200 C 231.517 199.004,231.860 198.927,231.962 199.028 C 232.063 199.130,231.937 199.423,231.680 199.680 M198.080 203.680 C 197.707 204.053,197.600 203.947,197.600 203.200 C 197.600 202.453,197.707 202.347,198.080 202.720 C 198.453 203.093,198.453 203.307,198.080 203.680 M138.097 206.199 C 138.260 206.379,138.193 206.768,137.948 207.063 C 137.606 207.475,137.653 207.600,138.151 207.600 C 138.915 207.600,139.021 206.575,138.300 206.159 C 138.025 206.001,137.933 206.019,138.097 206.199 M198.115 208.869 C 198.164 209.519,198.222 209.523,198.884 208.924 C 199.783 208.110,199.778 208.036,198.831 208.108 C 198.363 208.143,198.083 208.441,198.115 208.869 M197.036 211.400 C 196.486 211.950,195.758 212.400,195.418 212.400 C 195.078 212.400,194.800 212.650,194.800 212.956 C 194.800 213.261,194.485 213.486,194.100 213.456 C 193.715 213.425,193.436 213.598,193.480 213.841 C 193.528 214.103,193.164 214.206,192.580 214.094 C 192.013 213.986,191.600 214.095,191.600 214.353 C 191.600 214.608,190.911 214.800,190.000 214.800 C 189.120 214.800,188.400 214.638,188.400 214.440 C 188.400 214.241,187.737 214.098,186.927 214.121 C 186.101 214.144,185.384 213.951,185.294 213.681 C 185.206 213.417,184.828 213.200,184.455 213.200 C 184.082 213.200,183.517 212.840,183.200 212.400 C 182.883 211.960,182.383 211.600,182.088 211.600 C 181.794 211.600,181.648 211.445,181.765 211.256 C 182.079 210.749,180.058 211.054,179.381 211.616 C 178.583 212.278,178.653 212.918,179.600 213.600 C 180.040 213.917,180.400 214.431,180.400 214.742 C 180.400 215.404,182.372 217.199,183.100 217.200 C 183.375 217.200,183.600 217.380,183.600 217.600 C 183.600 217.820,184.219 218.000,184.976 218.000 C 185.733 218.000,186.464 218.180,186.600 218.400 C 186.736 218.620,187.996 218.800,189.400 218.800 C 190.804 218.800,192.064 218.620,192.200 218.400 C 192.336 218.180,192.937 218.000,193.535 218.000 C 194.165 218.000,194.867 217.663,195.200 217.200 C 195.517 216.760,196.013 216.400,196.302 216.400 C 197.239 216.400,199.600 213.690,199.600 212.613 C 199.600 212.056,199.780 211.600,200.000 211.600 C 200.220 211.600,200.400 211.426,200.400 211.213 C 200.400 210.999,200.130 210.929,199.800 211.055 C 199.470 211.182,199.200 211.086,199.200 210.843 C 199.200 210.073,198.074 210.363,197.036 211.400 " stroke="none" fill="#fcfcfc" fill-rule="evenodd"></path><path id="path1" d="M228.217 156.772 C 227.944 157.214,228.575 157.692,228.944 157.322 C 229.325 156.942,229.254 156.400,228.824 156.400 C 228.617 156.400,228.344 156.568,228.217 156.772 M196.400 163.167 C 196.400 163.369,196.300 163.796,196.177 164.116 C 196.026 164.510,196.288 164.762,196.986 164.895 C 198.217 165.131,198.624 164.684,197.800 164.000 C 197.475 163.730,197.307 163.350,197.428 163.155 C 197.549 162.960,197.367 162.800,197.024 162.800 C 196.681 162.800,196.400 162.965,196.400 163.167 M120.558 166.615 C 121.347 167.405,128.434 167.304,128.701 166.500 C 128.827 166.120,127.796 166.000,124.405 166.000 C 120.390 166.000,120.004 166.062,120.558 166.615 M156.787 166.547 C 157.411 167.171,161.283 167.114,161.502 166.478 C 161.640 166.077,161.063 165.975,159.024 166.041 C 157.170 166.101,156.494 166.254,156.787 166.547 M274.000 167.157 C 274.000 167.754,274.745 167.805,281.700 167.681 C 290.879 167.519,290.471 166.800,281.200 166.800 C 277.240 166.800,274.000 166.961,274.000 167.157 M290.800 167.600 C 290.800 168.347,290.907 168.453,291.280 168.080 C 291.653 167.707,291.653 167.493,291.280 167.120 C 290.907 166.747,290.800 166.853,290.800 167.600 M254.000 167.600 C 254.000 167.820,253.987 168.126,253.970 168.280 C 253.954 168.434,254.314 168.699,254.771 168.868 C 255.571 169.164,255.578 169.138,254.955 168.187 C 254.259 167.126,254.000 166.966,254.000 167.600 M113.336 168.696 C 113.479 168.927,113.315 169.224,112.972 169.355 C 112.364 169.589,112.523 170.400,113.177 170.400 C 113.698 170.400,113.971 168.829,113.501 168.539 C 113.266 168.394,113.193 168.464,113.336 168.696 M170.400 169.000 C 170.400 169.330,170.580 169.600,170.800 169.600 C 171.020 169.600,171.200 169.330,171.200 169.000 C 171.200 168.670,171.020 168.400,170.800 168.400 C 170.580 168.400,170.400 168.670,170.400 169.000 M109.384 171.227 C 109.239 171.461,109.216 171.749,109.333 171.867 C 109.620 172.153,110.400 171.648,110.400 171.176 C 110.400 170.665,109.709 170.699,109.384 171.227 M105.802 174.798 C 105.403 175.239,105.262 175.600,105.489 175.600 C 105.992 175.600,106.990 174.457,106.721 174.188 C 106.615 174.082,106.202 174.356,105.802 174.798 M200.267 175.467 C 199.725 176.008,200.027 176.400,200.987 176.400 C 201.701 176.400,201.911 176.233,201.745 175.800 C 201.506 175.178,200.731 175.003,200.267 175.467 M117.804 183.593 C 117.666 183.817,117.698 184.003,117.876 184.006 C 118.054 184.009,117.930 184.187,117.600 184.400 C 117.270 184.613,117.203 184.791,117.451 184.794 C 118.126 184.803,118.917 183.719,118.447 183.429 C 118.232 183.296,117.942 183.370,117.804 183.593 M264.400 187.367 C 264.400 187.715,264.685 188.000,265.033 188.000 C 265.740 188.000,265.617 187.139,264.875 186.892 C 264.614 186.805,264.400 187.018,264.400 187.367 M167.600 187.520 C 167.600 187.696,167.816 188.056,168.080 188.320 C 168.453 188.693,168.453 188.800,168.080 188.800 C 167.816 188.800,167.600 189.160,167.600 189.600 C 167.600 190.449,168.183 190.675,168.606 189.990 C 168.945 189.441,168.433 187.200,167.968 187.200 C 167.766 187.200,167.600 187.344,167.600 187.520 M183.600 188.200 C 183.600 188.530,183.780 188.800,184.000 188.800 C 184.220 188.800,184.400 188.530,184.400 188.200 C 184.400 187.870,184.220 187.600,184.000 187.600 C 183.780 187.600,183.600 187.870,183.600 188.200 M230.800 188.200 C 230.800 188.530,230.980 188.800,231.200 188.800 C 231.420 188.800,231.600 188.530,231.600 188.200 C 231.600 187.870,231.420 187.600,231.200 187.600 C 230.980 187.600,230.800 187.870,230.800 188.200 M148.800 188.400 C 148.800 188.620,149.070 188.800,149.400 188.800 C 149.730 188.800,150.000 188.620,150.000 188.400 C 150.000 188.180,149.730 188.000,149.400 188.000 C 149.070 188.000,148.800 188.180,148.800 188.400 M263.200 189.400 C 263.200 190.052,263.424 190.400,263.843 190.400 C 264.265 190.400,264.402 190.182,264.243 189.767 C 264.109 189.419,264.000 188.969,264.000 188.767 C 264.000 188.565,263.820 188.400,263.600 188.400 C 263.380 188.400,263.200 188.850,263.200 189.400 M149.419 189.569 C 149.291 189.776,149.370 190.058,149.593 190.196 C 149.817 190.334,150.011 190.842,150.025 191.324 C 150.050 192.191,150.055 192.190,150.424 191.270 C 150.811 190.304,149.909 188.777,149.419 189.569 M117.201 190.700 C 117.201 191.195,117.380 191.600,117.600 191.600 C 117.820 191.600,118.000 191.870,118.000 192.200 C 118.000 192.530,118.180 192.800,118.400 192.800 C 118.958 192.800,118.911 192.601,118.001 191.110 C 117.294 189.950,117.203 189.903,117.201 190.700 M118.657 194.195 C 118.229 195.310,119.710 196.298,120.789 195.615 C 121.283 195.303,121.250 195.195,120.589 194.946 C 120.155 194.783,119.604 194.388,119.364 194.069 C 118.991 193.571,118.890 193.589,118.657 194.195 M212.760 193.824 C 212.385 197.357,212.717 199.836,213.346 198.198 C 213.472 197.869,213.851 197.600,214.187 197.600 C 214.959 197.600,214.984 196.943,214.228 196.520 C 213.501 196.113,213.547 195.544,214.360 194.870 C 214.725 194.569,214.759 194.466,214.439 194.631 C 214.097 194.809,213.668 194.635,213.339 194.185 C 213.043 193.779,212.782 193.616,212.760 193.824 M151.433 194.347 C 151.161 194.787,152.573 196.094,152.932 195.734 C 153.420 195.247,153.210 194.711,152.620 194.937 C 152.233 195.085,152.115 194.967,152.263 194.580 C 152.500 193.962,151.793 193.763,151.433 194.347 M134.707 195.824 C 134.925 196.967,135.780 197.755,136.487 197.465 C 136.817 197.329,136.696 197.161,136.146 196.992 C 135.578 196.818,135.355 196.494,135.479 196.021 C 135.581 195.630,135.408 195.212,135.095 195.092 C 134.674 194.930,134.572 195.122,134.707 195.824 M232.400 196.520 C 232.400 197.026,232.206 197.634,231.970 197.870 C 231.663 198.177,231.864 198.347,232.670 198.465 C 233.728 198.618,233.806 198.532,233.891 197.114 C 233.967 195.842,233.855 195.600,233.191 195.600 C 232.632 195.600,232.400 195.870,232.400 196.520 M122.661 196.701 C 122.546 196.887,122.800 197.257,123.226 197.523 C 123.652 197.789,124.000 197.847,124.000 197.652 C 124.000 197.103,122.897 196.319,122.661 196.701 M156.800 197.557 C 156.800 197.963,158.018 198.515,158.297 198.236 C 158.398 198.135,158.361 197.861,158.216 197.627 C 157.897 197.110,156.800 197.056,156.800 197.557 M159.200 197.600 C 159.200 197.820,159.560 198.000,160.000 198.000 C 160.440 198.000,160.800 197.820,160.800 197.600 C 160.800 197.380,160.440 197.200,160.000 197.200 C 159.560 197.200,159.200 197.380,159.200 197.600 M103.864 198.978 C 103.725 199.339,103.828 199.551,104.114 199.495 C 104.381 199.443,104.551 199.638,104.490 199.930 C 104.430 200.221,104.573 200.340,104.810 200.194 C 105.107 200.010,105.084 199.725,104.733 199.264 C 104.454 198.899,104.198 198.547,104.163 198.483 C 104.128 198.418,103.993 198.641,103.864 198.978 M231.200 199.200 C 230.883 199.396,230.756 199.689,230.918 199.852 C 231.081 200.014,231.423 199.937,231.680 199.680 C 232.284 199.076,231.947 198.738,231.200 199.200 M136.400 199.624 C 136.400 199.857,136.220 199.936,136.000 199.800 C 135.776 199.662,135.606 199.960,135.613 200.476 C 135.624 201.325,135.668 201.344,136.152 200.706 C 136.442 200.325,136.806 200.139,136.961 200.294 C 137.116 200.449,137.124 200.266,136.978 199.888 C 136.681 199.114,136.400 198.986,136.400 199.624 M193.817 199.972 C 193.544 200.414,194.175 200.892,194.544 200.522 C 194.925 200.142,194.854 199.600,194.424 199.600 C 194.217 199.600,193.944 199.768,193.817 199.972 M197.600 203.200 C 197.600 203.947,197.707 204.053,198.080 203.680 C 198.453 203.307,198.453 203.093,198.080 202.720 C 197.707 202.347,197.600 202.453,197.600 203.200 M199.687 204.900 C 199.461 205.175,199.210 205.850,199.129 206.400 C 199.045 206.968,198.753 207.351,198.453 207.288 C 198.163 207.226,198.006 207.406,198.104 207.688 C 198.202 207.969,198.624 208.138,199.041 208.062 C 199.730 207.937,199.717 208.013,198.900 208.888 C 197.859 210.003,197.771 210.400,198.567 210.400 C 198.878 210.400,199.204 210.612,199.290 210.871 C 199.736 212.207,200.301 210.446,200.338 207.608 C 200.381 204.239,200.347 204.096,199.687 204.900 M137.662 206.134 C 137.155 206.674,136.909 207.220,137.116 207.348 C 137.594 207.644,138.932 206.196,138.733 205.599 C 138.649 205.346,138.184 205.578,137.662 206.134 M179.700 206.185 C 178.894 206.547,178.800 206.875,178.800 209.318 C 178.800 212.031,178.805 212.042,179.662 211.442 C 180.293 211.000,180.727 210.947,181.280 211.243 C 181.967 211.611,181.990 211.572,181.522 210.824 C 181.239 210.371,180.871 210.000,180.704 210.000 C 180.263 210.000,180.331 207.429,180.783 206.977 C 181.459 206.301,180.690 205.740,179.700 206.185 M115.052 208.885 C 115.327 209.329,116.305 209.277,116.598 208.803 C 116.740 208.574,116.423 208.440,115.851 208.488 C 115.305 208.533,114.945 208.712,115.052 208.885 M116.988 209.145 C 116.614 209.519,117.309 210.000,118.224 210.000 C 118.822 210.000,119.200 209.769,119.200 209.404 C 119.200 208.864,117.473 208.661,116.988 209.145 M151.200 209.400 C 150.778 209.909,150.869 210.000,151.800 210.000 C 152.731 210.000,152.822 209.909,152.400 209.400 C 152.126 209.070,151.856 208.800,151.800 208.800 C 151.744 208.800,151.474 209.070,151.200 209.400 M129.600 209.600 C 129.600 209.820,129.870 210.000,130.200 210.000 C 130.530 210.000,130.800 209.820,130.800 209.600 C 130.800 209.380,130.530 209.200,130.200 209.200 C 129.870 209.200,129.600 209.380,129.600 209.600 M120.400 209.919 C 120.400 210.518,121.913 210.789,125.300 210.795 C 128.068 210.799,129.279 210.389,127.900 209.913 C 126.823 209.541,120.400 209.547,120.400 209.919 M156.343 210.364 C 156.956 210.744,161.366 210.833,160.991 210.458 C 160.858 210.325,159.635 210.173,158.275 210.122 C 156.812 210.066,156.022 210.165,156.343 210.364 " stroke="none" fill="#f4f4f4" fill-rule="evenodd"></path></g></svg>